<svg width="50" height="50" viewBox="0 0 50 50" fill="none" xmlns="http://www.w3.org/2000/svg">
<g clip-path="url(#clip0_28_65)">
<path d="M35.9375 10.4167H32.2917C31.8773 10.4167 31.4799 10.2521 31.1868 9.95903C30.8938 9.666 30.7292 9.26857 30.7292 8.85417V5.72917C30.7292 5.31477 30.8938 4.91734 31.1868 4.62432C31.4799 4.33129 31.8773 4.16667 32.2917 4.16667H35.9375C36.3519 4.16667 36.7494 4.33129 37.0424 4.62432C37.3354 4.91734 37.5 5.31477 37.5 5.72917V8.85417C37.5 9.26857 37.3354 9.666 37.0424 9.95903C36.7494 10.2521 36.3519 10.4167 35.9375 10.4167Z" fill="#90A4AE"/>
<path d="M40.625 39.5833C40.0725 39.5833 39.5426 39.3638 39.1519 38.9731C38.7612 38.5824 38.5417 38.0525 38.5417 37.5C38.5417 36.9475 38.7612 36.4176 39.1519 36.0269C39.5426 35.6362 40.0725 35.4167 40.625 35.4167C43.4958 35.4167 45.8333 33.0792 45.8333 30.2083V28.125C45.8333 25.2542 43.4958 22.9167 40.625 22.9167H8.85417C3.97292 22.9167 0 18.9437 0 14.0625C0 9.18124 3.97292 5.20833 8.85417 5.20833H23.9583C24.5109 5.20833 25.0408 5.42782 25.4315 5.81852C25.8222 6.20922 26.0417 6.73913 26.0417 7.29166C26.0417 7.8442 25.8222 8.3741 25.4315 8.7648C25.0408 9.1555 24.5109 9.37499 23.9583 9.37499H8.85417C6.26875 9.37499 4.16667 11.4771 4.16667 14.0625C4.16667 16.6479 6.26875 18.75 8.85417 18.75H40.625C45.7937 18.75 50 22.9562 50 28.125V30.2083C50 35.3771 45.7937 39.5833 40.625 39.5833Z" fill="#B0BEC5"/>
<path d="M35.9375 47.9167H5.72917C4.21004 47.9156 2.75344 47.3116 1.67925 46.2374C0.605065 45.1632 0.00110362 43.7066 0 42.1875L0 34.8958C0.00110362 33.3767 0.605065 31.9201 1.67925 30.8459C2.75344 29.7717 4.21004 29.1678 5.72917 29.1667H35.9375C37.4566 29.1678 38.9132 29.7717 39.9874 30.8459C41.0616 31.9201 41.6656 33.3767 41.6667 34.8958V42.1875C41.6656 43.7066 41.0616 45.1632 39.9874 46.2374C38.9132 47.3116 37.4566 47.9156 35.9375 47.9167Z" fill="#607D8B"/>
<path d="M10.9375 36.4583H7.8125C7.3981 36.4583 7.00067 36.2937 6.70765 36.0007C6.41462 35.7077 6.25 35.3102 6.25 34.8958C6.25 34.4814 6.41462 34.084 6.70765 33.791C7.00067 33.498 7.3981 33.3333 7.8125 33.3333H10.9375C11.3519 33.3333 11.7493 33.498 12.0424 33.791C12.3354 34.084 12.5 34.4814 12.5 34.8958C12.5 35.3102 12.3354 35.7077 12.0424 36.0007C11.7493 36.2937 11.3519 36.4583 10.9375 36.4583ZM10.9375 43.75H7.8125C7.3981 43.75 7.00067 43.5854 6.70765 43.2924C6.41462 42.9993 6.25 42.6019 6.25 42.1875C6.25 41.7731 6.41462 41.3757 6.70765 41.0827C7.00067 40.7896 7.3981 40.625 7.8125 40.625H10.9375C11.3519 40.625 11.7493 40.7896 12.0424 41.0827C12.3354 41.3757 12.5 41.7731 12.5 42.1875C12.5 42.6019 12.3354 42.9993 12.0424 43.2924C11.7493 43.5854 11.3519 43.75 10.9375 43.75ZM33.8542 36.4583H30.7292C30.3148 36.4583 29.9173 36.2937 29.6243 36.0007C29.3313 35.7077 29.1667 35.3102 29.1667 34.8958C29.1667 34.4814 29.3313 34.084 29.6243 33.791C29.9173 33.498 30.3148 33.3333 30.7292 33.3333H33.8542C34.2686 33.3333 34.666 33.498 34.959 33.791C35.2521 34.084 35.4167 34.4814 35.4167 34.8958C35.4167 35.3102 35.2521 35.7077 34.959 36.0007C34.666 36.2937 34.2686 36.4583 33.8542 36.4583ZM33.8542 43.75H30.7292C30.3148 43.75 29.9173 43.5854 29.6243 43.2924C29.3313 42.9993 29.1667 42.6019 29.1667 42.1875C29.1667 41.7731 29.3313 41.3757 29.6243 41.0827C29.9173 40.7896 30.3148 40.625 30.7292 40.625H33.8542C34.2686 40.625 34.666 40.7896 34.959 41.0827C35.2521 41.3757 35.4167 41.7731 35.4167 42.1875C35.4167 42.6019 35.2521 42.9993 34.959 43.2924C34.666 43.5854 34.2686 43.75 33.8542 43.75ZM22.3958 36.4583H19.2708C18.8564 36.4583 18.459 36.2937 18.166 36.0007C17.873 35.7077 17.7083 35.3102 17.7083 34.8958C17.7083 34.4814 17.873 34.084 18.166 33.791C18.459 33.498 18.8564 33.3333 19.2708 33.3333H22.3958C22.8102 33.3333 23.2077 33.498 23.5007 33.791C23.7937 34.084 23.9583 34.4814 23.9583 34.8958C23.9583 35.3102 23.7937 35.7077 23.5007 36.0007C23.2077 36.2937 22.8102 36.4583 22.3958 36.4583ZM22.3958 43.75H19.2708C18.8564 43.75 18.459 43.5854 18.166 43.2924C17.873 42.9993 17.7083 42.6019 17.7083 42.1875C17.7083 41.7731 17.873 41.3757 18.166 41.0827C18.459 40.7896 18.8564 40.625 19.2708 40.625H22.3958C22.8102 40.625 23.2077 40.7896 23.5007 41.0827C23.7937 41.3757 23.9583 41.7731 23.9583 42.1875C23.9583 42.6019 23.7937 42.9993 23.5007 43.2924C23.2077 43.5854 22.8102 43.75 22.3958 43.75Z" fill="white"/>
<path d="M31.7709 12.5H26.5625C24.5521 12.5 22.9167 10.8646 22.9167 8.85416V5.72916C22.9167 3.71875 24.5521 2.08333 26.5625 2.08333H31.7709C32.1853 2.08333 32.5827 2.24795 32.8757 2.54097C33.1687 2.834 33.3334 3.23143 33.3334 3.64583V10.9375C33.3334 11.3519 33.1687 11.7493 32.8757 12.0423C32.5827 12.3354 32.1853 12.5 31.7709 12.5Z" fill="#2196F3"/>
</g>
<defs>
<clipPath id="clip0_28_65">
<rect width="50" height="50" fill="white"/>
</clipPath>
</defs>
</svg>
