<svg width="50" height="50" viewBox="0 0 50 50" fill="none" xmlns="http://www.w3.org/2000/svg">
<g clip-path="url(#clip0_22_605)">
<path d="M43.8625 50H6.1375C5.34029 49.9993 4.55198 49.8325 3.82287 49.51C3.09376 49.1876 2.43988 48.7168 1.90294 48.1275C1.36601 47.5382 0.957815 46.8435 0.70442 46.0876C0.451025 45.3317 0.35799 44.5313 0.431254 43.7375L3.44375 11.55C3.5711 10.1266 4.22812 8.80278 5.28482 7.8406C6.34152 6.87843 7.72089 6.34796 9.15 6.35416H40.8521C42.2813 6.34805 43.6607 6.87887 44.7171 7.84153C45.7735 8.80418 46.4299 10.1284 46.5563 11.5521L49.5688 43.7375C49.6414 44.5312 49.5479 45.3313 49.2942 46.0869C49.0406 46.8425 48.6324 47.537 48.0956 48.1261C47.5588 48.7153 46.9051 49.1861 46.1763 49.5088C45.4475 49.8314 44.6595 49.9987 43.8625 50Z" fill="#2196F3"/>
<path d="M47.9583 26.5375L31.8708 26.5625L2.03747 26.5812L1.64789 30.7479L27.8896 30.7312L14.5041 50H19.5771L32.9646 30.7271L48.3479 30.7042L47.9583 26.5375Z" fill="white"/>
<path d="M25 27.0833C24.6277 27.0842 24.2676 26.9511 23.9854 26.7083C23.6 26.3792 14.5833 18.5729 14.5833 10.5479C14.5833 4.73125 19.2562 0 25 0C30.7437 0 35.4166 4.73125 35.4166 10.5479C35.4166 18.575 26.4 26.3812 26.0146 26.7083C25.7324 26.9511 25.3722 27.0842 25 27.0833Z" fill="#EF5350"/>
<path d="M25 6.25C22.7021 6.25 20.8333 8.11875 20.8333 10.4167C20.8333 12.7146 22.7021 14.5833 25 14.5833C27.2979 14.5833 29.1666 12.7146 29.1666 10.4167C29.1666 8.11875 27.2979 6.25 25 6.25Z" fill="white"/>
</g>
<defs>
<clipPath id="clip0_22_605">
<rect width="50" height="50" fill="white"/>
</clipPath>
</defs>
</svg>
